<?xml version="1.0" encoding="utf-8"?>
<!-- Generator: Adobe Illustrator 16.0.0, SVG Export Plug-In . SVG Version: 6.00 Build 0)  -->
<!DOCTYPE svg PUBLIC "-//W3C//DTD SVG 1.1//EN" "http://www.w3.org/Graphics/SVG/1.1/DTD/svg11.dtd">
<svg version="1.1" id="Capa_2_copia_2" xmlns="http://www.w3.org/2000/svg" xmlns:xlink="http://www.w3.org/1999/xlink" x="0px"
	 y="0px" width="173.2px" height="174.2px" viewBox="0 0 173.2 174.2" enable-background="new 0 0 173.2 174.2"
	 xml:space="preserve">
<path fill="#5392AF" d="M115.741-0.344c-4.269,0-7.979,2.417-9.846,5.953h-2.846c-5.078,0-9.988,1.63-13.785,4.527
	c-4.391,3.351-6.832,8.113-6.832,13.345v14.694h9.771V23.481c0-4.887,5.711-8.103,10.848-8.103h2.562
	c1.754,3.847,5.631,6.527,10.127,6.527c6.135,0,11.125-4.99,11.125-11.124C126.866,4.647,121.875-0.344,115.741-0.344z
	 M115.741,13.994c-1.771,0-3.214-1.441-3.214-3.212c0-1.771,1.44-3.213,3.214-3.213c1.771,0,3.213,1.442,3.213,3.213
	C118.954,12.552,117.512,13.994,115.741,13.994z"/>
<g>
	<path fill="#62828B" d="M45.663,148.071c1.518-7.947,3.606-17.053,6.242-26.666l-23.037-5.678
		c-2.836,10.395-5.123,20.482-6.784,29.458c-11.144,3.683-19.192,14.202-19.192,26.519h55.852
		C58.743,161.782,53.518,153.028,45.663,148.071z"/>
	<path fill="#62828B" d="M152.922,145.264c-1.866-10.131-4.524-21.686-7.867-33.451l-23.061,5.752
		c3.121,10.9,5.56,21.395,7.28,30.404c-7.944,4.938-13.239,13.744-13.239,23.734h55.852
		C171.887,159.471,163.948,149.012,152.922,145.264z"/>
</g>
<path fill="#C44E50" d="M172.676,111.067c0,14.553-38.135,26.35-85.18,26.35c-47.043,0-85.18-11.797-85.18-26.35
	c0-8.688,13.601-16.395,34.572-21.193c5.821-16.34,12.098-29.624,18.67-39.483c9.712-14.572,20.457-21.96,31.938-21.96
	c11.481,0,22.229,7.388,31.938,21.96c6.573,9.861,12.851,23.144,18.67,39.483C159.079,94.672,172.676,102.377,172.676,111.067z"/>
<circle fill="#FFFFFF" cx="87.438" cy="75.661" r="20.766"/>
<path fill="#5392AF" d="M87.438,86.786c-6.134,0-11.125-4.99-11.125-11.124c0-6.135,4.991-11.125,11.125-11.125
	c6.135,0,11.125,4.99,11.125,11.125C98.563,81.795,93.573,86.786,87.438,86.786z"/>
</svg>
