<?xml version="1.0" encoding="utf-8"?>
<!-- Generator: Adobe Illustrator 16.0.0, SVG Export Plug-In . SVG Version: 6.00 Build 0)  -->
<!DOCTYPE svg PUBLIC "-//W3C//DTD SVG 1.1//EN" "http://www.w3.org/Graphics/SVG/1.1/DTD/svg11.dtd">
<svg version="1.1" id="Capa_1" xmlns="http://www.w3.org/2000/svg" xmlns:xlink="http://www.w3.org/1999/xlink" x="0px" y="0px"
	 width="554.771px" height="95.955px" viewBox="0 0 554.771 95.955" enable-background="new 0 0 554.771 95.955"
	 xml:space="preserve">
<path fill="#FFFFFF" d="M82.446,78.755c-0.519-2.758-1.134-5.722-1.852-8.802c7.816-2.562,12.62-6.009,12.62-9.798
	c0-4.731-7.396-8.92-18.818-11.529c-3.154-8.865-6.58-16.098-10.17-21.482c-4.513-6.794-9.465-10.71-14.684-11.703v-2.928
	c0-2.664,3.1-4.404,5.873-4.404h1.414c0.979,2.066,3.046,3.534,5.493,3.534c3.317,0,6.036-2.72,6.036-6.036
	c-0.053-3.371-2.773-6.037-6.09-6.037c-2.34,0-4.352,1.305-5.33,3.264h-1.523c-2.773,0-5.438,0.869-7.505,2.446
	c-2.393,1.851-3.698,4.405-3.698,7.233v2.928c-5.219,0.993-10.17,4.909-14.684,11.703c-3.59,5.385-6.962,12.562-10.171,21.482
	C7.938,51.235,0.541,55.424,0.541,60.155c0,3.819,4.802,7.271,12.628,9.828c-0.713,3.039-1.343,5.978-1.861,8.718
	C5.272,80.714,0.867,86.424,0.867,93.113H31.27c0-5.386-2.883-10.17-7.125-12.836c0.435-2.286,0.964-4.776,1.574-7.389
	c6.343,1.002,13.53,1.57,21.159,1.57c7.601,0,14.771-0.571,21.105-1.576c0.611,2.583,1.142,5.053,1.574,7.34
	c-4.297,2.665-7.179,7.45-7.179,12.89h30.401C92.779,86.479,88.482,80.768,82.446,78.755z M62.27,3.866
	c0.979,0,1.74,0.762,1.74,1.74s-0.816,1.74-1.74,1.74c-0.979,0-1.74-0.762-1.74-1.74S61.29,3.866,62.27,3.866z M46.715,52.215
	c-6.248,0-11.312-5.065-11.312-11.312c0-6.248,5.064-11.312,11.312-11.312s11.312,5.064,11.312,11.312
	C58.027,47.149,52.963,52.215,46.715,52.215z"/>
<path fill="#FFFFFF" d="M46.715,46.939c-3.317,0-6.037-2.72-6.037-6.036c0-3.318,2.72-6.037,6.037-6.037s6.037,2.719,6.037,6.037
	C52.752,44.22,50.032,46.939,46.715,46.939z"/>
<g>
	<path fill="#FFFFFF" d="M179.109,48.385l-5.738,3.566c-4.957-6.582-11.721-9.873-20.291-9.873c-6.852,0-12.539,2.205-17.066,6.609
		c-4.525,4.406-6.789,9.76-6.789,16.058c0,4.098,1.041,7.954,3.123,11.567c2.084,3.614,4.939,6.42,8.572,8.415
		c3.631,1.998,7.701,2.996,12.211,2.996c8.262,0,15.008-3.291,20.24-9.874l5.738,3.774c-2.689,4.05-6.299,7.188-10.83,9.421
		c-4.531,2.23-9.693,3.347-15.482,3.347c-8.891,0-16.266-2.826-22.125-8.479c-5.859-5.65-8.787-12.525-8.787-20.624
		c0-5.444,1.369-10.501,4.109-15.172c2.74-4.67,6.504-8.313,11.295-10.934c4.789-2.617,10.148-3.929,16.076-3.929
		c3.723,0,7.314,0.569,10.779,1.707c3.463,1.138,6.4,2.617,8.812,4.445C175.369,43.233,177.42,45.561,179.109,48.385z"/>
	<path fill="#FFFFFF" d="M189.643,14.991h7.236v77.953h-7.236V14.991z"/>
	<path fill="#FFFFFF" d="M237.42,35.255c8.666,0,15.848,3.138,21.543,9.408c5.178,5.722,7.768,12.492,7.768,20.314
		c0,7.858-2.736,14.726-8.207,20.601c-5.473,5.877-12.506,8.813-21.104,8.813c-8.629,0-15.682-2.937-21.152-8.813
		c-5.473-5.875-8.207-12.742-8.207-20.601c0-7.787,2.588-14.542,7.766-20.262C221.523,38.409,228.723,35.255,237.42,35.255z
		 M237.396,42.338c-6.018,0-11.189,2.221-15.512,6.668c-4.324,4.445-6.484,9.821-6.484,16.126c0,4.068,0.984,7.858,2.957,11.375
		c1.971,3.515,4.635,6.228,7.99,8.141c3.354,1.913,7.035,2.87,11.049,2.87c4.01,0,7.693-0.957,11.049-2.87
		c3.354-1.913,6.018-4.626,7.988-8.141c1.971-3.517,2.957-7.307,2.957-11.375c0-6.305-2.17-11.681-6.512-16.126
		C248.539,44.559,243.379,42.338,237.396,42.338z"/>
	<path fill="#FFFFFF" d="M277.391,36.701h7.236v26.261c0,6.412,0.344,10.822,1.035,13.233c1.035,3.448,3.012,6.17,5.928,8.169
		s6.393,2.997,10.432,2.997c4.037,0,7.463-0.974,10.275-2.922c2.812-1.945,4.756-4.504,5.826-7.674
		c0.723-2.173,1.086-6.774,1.086-13.804V36.701h7.393v27.605c0,7.753-0.904,13.596-2.715,17.524
		c-1.809,3.93-4.531,7.004-8.166,9.227c-3.637,2.223-8.193,3.334-13.674,3.334s-10.053-1.111-13.725-3.334
		c-3.67-2.223-6.41-5.324-8.219-9.304c-1.811-3.981-2.713-9.969-2.713-17.963V36.701z"/>
	<path fill="#FFFFFF" d="M483.607,92.944h-7.236v-26.26c0-6.409-0.346-10.821-1.035-13.233c-1.037-3.446-3.014-6.169-5.93-8.168
		c-2.914-1.998-6.391-2.998-10.43-2.998c-4.037,0-7.465,0.974-10.277,2.922c-2.812,1.946-4.754,4.505-5.824,7.677
		c-0.725,2.17-1.086,6.771-1.086,13.801v26.26h-7.393V65.341c0-7.754,0.904-13.595,2.713-17.524
		c1.809-3.927,4.533-7.005,8.168-9.228c3.637-2.221,8.193-3.334,13.672-3.334c5.48,0,10.057,1.113,13.725,3.334
		c3.672,2.223,6.412,5.324,8.219,9.306c1.811,3.98,2.715,9.969,2.715,17.964V92.944z"/>
	<path fill="#FFFFFF" d="M523.902,35.255c8.664,0,15.848,3.138,21.543,9.408c5.178,5.722,7.768,12.492,7.768,20.314
		c0,7.858-2.738,14.726-8.207,20.601c-5.473,5.877-12.508,8.813-21.104,8.813c-8.631,0-15.682-2.937-21.154-8.813
		c-5.471-5.875-8.207-12.742-8.207-20.601c0-7.787,2.59-14.542,7.768-20.262C508.004,38.409,515.203,35.255,523.902,35.255z
		 M523.877,42.338c-6.018,0-11.189,2.221-15.512,6.668c-4.322,4.445-6.484,9.821-6.484,16.126c0,4.068,0.986,7.858,2.957,11.375
		c1.971,3.515,4.635,6.228,7.99,8.141s7.037,2.87,11.049,2.87c4.01,0,7.693-0.957,11.049-2.87c3.354-1.913,6.018-4.626,7.99-8.141
		c1.969-3.517,2.957-7.307,2.957-11.375c0-6.305-2.172-11.681-6.512-16.126C535.021,44.559,529.859,42.338,523.877,42.338z"/>
	<path fill="#FFFFFF" d="M396.576,15H390v30.216c0-0.184-0.754-0.371-0.916-0.553c-5.697-6.271-13.097-9.408-21.763-9.408
		c-8.697,0-16.007,3.154-21.702,9.461c-5.178,5.72-7.822,12.475-7.822,20.262c0,7.858,2.707,14.726,8.18,20.601
		c5.471,5.877,12.509,8.813,21.14,8.813c8.596,0,15.626-2.937,21.095-8.813c5.473-5.875,8.313-12.776,8.313-20.633
		C396.524,64.341,396.576,15,396.576,15z M386.117,76.507c-1.973,3.515-4.637,6.228-7.99,8.141c-3.355,1.913-7.037,2.87-11.051,2.87
		c-4.012,0-7.693-0.957-11.049-2.87s-6.02-4.626-7.988-8.141c-1.971-3.517-2.957-7.307-2.957-11.375
		c0-6.305,2.162-11.681,6.484-16.126c4.322-4.447,9.494-6.668,15.51-6.668c5.984,0,11.146,2.221,15.486,6.668
		c4.34,4.445,6.51,9.821,6.51,16.126C389.072,69.2,388.086,72.99,386.117,76.507z"/>
	<path fill="#FFFFFF" d="M419,36.681V93h-7V36.694c-3-1.52-7.793-5.971-7.793-11.229c0-6.512,5.431-11.791,11.942-11.791
		s11.415,5.279,11.415,11.791C427.564,30.705,423,35.144,419,36.681z M416.443,19.735c-3.166,0-5.73,2.565-5.73,5.73
		c0,3.164,2.564,5.729,5.73,5.729c3.164,0,5.729-2.565,5.729-5.729C422.172,22.301,419.607,19.735,416.443,19.735z"/>
</g>
</svg>
