<?xml version="1.0" encoding="utf-8"?>
<!-- Generator: Adobe Illustrator 16.0.0, SVG Export Plug-In . SVG Version: 6.00 Build 0)  -->
<!DOCTYPE svg PUBLIC "-//W3C//DTD SVG 1.1//EN" "http://www.w3.org/Graphics/SVG/1.1/DTD/svg11.dtd">
<svg version="1.1" id="Capa_1" xmlns="http://www.w3.org/2000/svg" xmlns:xlink="http://www.w3.org/1999/xlink" x="0px" y="0px"
	 width="433.9px" height="770.5px" viewBox="0 0 433.9 770.5" enable-background="new 0 0 433.9 770.5" xml:space="preserve">
<circle opacity="0.7" fill="#ECF3F3" cx="340.6" cy="197.9" r="10.7"/>
<path opacity="0.7" fill="#ECF3F3" d="M417.9,236.9c-2.4-4.1-5-8.4-7.9-12.8c10.7-8.4,16.2-16.6,14.1-22.5
	c-2.7-7.4-16.6-9.7-35.9-7.3c-10-12.1-19.4-21.4-28.1-27.8c-10.9-8-20.8-11.3-29.6-9.9l-6-16.4c3.8-3.3,5.3-8.8,3.5-13.8
	c-2.4-6.5-9.6-9.9-16.2-7.5c-6.5,2.4-9.9,9.6-7.5,16.2c1.9,5.1,6.7,8.3,11.9,8.3l6,16.4c-7.6,4.5-13.1,13.5-16.3,26.6
	c-2.5,10.4-3.8,23.6-3.7,39.3c-16.3,10.6-25.5,21.3-22.8,28.7c2.2,5.9,11.6,8.6,25.2,8.2c0.6,5.2,1.4,10.2,2.1,14.8
	c-8.3,6.6-11.9,17.9-8,28.4l47.4-17.3c-3.1-8.5-10.2-14.3-18.4-16.1c-0.6-3.8-1.2-8-1.8-12.5c10.5-2,22.1-5.2,34-9.6
	c11.9-4.3,22.9-9.3,32.2-14.5c2.4,3.7,4.7,7.3,6.6,10.6c-5.3,6.6-7,15.8-3.9,24.3l47.5-17.3C438.4,243.1,428.5,236.7,417.9,236.9z
	 M311,132.6c-1-2.8,0.4-6,3.3-7c2.8-1,6,0.4,7,3.3c1,2.8-0.4,6-3.3,7C315.1,136.9,312,135.4,311,132.6z M347,215.6
	c-9.7,3.5-20.5-1.5-24.1-11.2c-3.5-9.7,1.5-20.5,11.2-24.1c9.7-3.5,20.5,1.5,24.1,11.2C361.8,201.3,356.7,212,347,215.6z"/>
<path opacity="0.7" fill="#ECF3F3" d="M232.2,91.6L218,84.9c12.2-26.2,33.9-46.1,61.1-56c27.2-9.9,56.6-8.6,82.8,3.6l-6.6,14.3
	c-22.4-10.5-47.6-11.5-70.8-3.1C261.2,52.2,242.7,69.2,232.2,91.6z"/>
<path opacity="0.7" fill="#ECF3F3" d="M287.1,117.2l-14.3-6.6c5.4-11.6,15-20.3,27-24.7c12-4.4,25-3.8,36.5,1.6l-6.6,14.3
	c-7.7-3.6-16.4-4-24.5-1.1C297.1,103.6,290.7,109.4,287.1,117.2z"/>
<path opacity="0.7" fill="#ECF3F3" d="M259.7,104.4l-14.3-6.6c8.8-18.8,24.4-33.2,44-40.3c19.6-7.1,40.7-6.2,59.6,2.6l-6.7,14.3
	c-15-7-31.9-7.8-47.5-2.1C279.2,77.9,266.7,89.4,259.7,104.4z"/>
</svg>
