<?xml version="1.0" encoding="utf-8"?>
<!-- Generator: Adobe Illustrator 16.0.0, SVG Export Plug-In . SVG Version: 6.00 Build 0)  -->
<!DOCTYPE svg PUBLIC "-//W3C//DTD SVG 1.1//EN" "http://www.w3.org/Graphics/SVG/1.1/DTD/svg11.dtd">
<svg version="1.1" id="Capa_1" xmlns="http://www.w3.org/2000/svg" xmlns:xlink="http://www.w3.org/1999/xlink" x="0px" y="0px"
	 width="20px" height="20px" viewBox="0 0 20 20" enable-background="new 0 0 20 20" xml:space="preserve">
<path fill="#FFFFFF" d="M10.072,20c-2.437,0-2.842-0.52-2.842-0.52c0-0.272-0.012-1.177-0.017-2.132
	c-3.185,0.691-3.857-1.351-3.857-1.351c-0.52-1.323-1.271-1.676-1.271-1.676c-1.04-0.71,0.081-0.696,0.081-0.696
	c1.149,0.079,1.754,1.181,1.754,1.181c1.022,1.75,2.682,1.243,3.333,0.95c0.104-0.736,0.4-1.243,0.726-1.529
	c-2.542-0.289-5.215-1.272-5.215-5.659c0-1.25,0.446-2.271,1.177-3.072C3.823,5.204,3.43,4.039,4.055,2.462
	c0,0,0.96-0.308,3.149,1.174c0.913-0.255,1.892-0.38,2.865-0.385c0.974,0.005,1.954,0.132,2.867,0.386
	c2.186-1.482,3.146-1.174,3.146-1.174c0.627,1.577,0.232,2.741,0.116,3.031c0.732,0.801,1.177,1.822,1.177,3.072
	c0,4.4-2.678,5.367-5.229,5.652c0.411,0.354,0.776,1.051,0.776,2.118c0,1.532-0.014,2.767-0.014,3.144
	C12.908,19.48,12.508,20,10.072,20z"/>
</svg>
