<?xml version="1.0" encoding="utf-8"?>
<!-- Generator: Adobe Illustrator 16.0.0, SVG Export Plug-In . SVG Version: 6.00 Build 0)  -->
<!DOCTYPE svg PUBLIC "-//W3C//DTD SVG 1.1//EN" "http://www.w3.org/Graphics/SVG/1.1/DTD/svg11.dtd">
<svg version="1.1" id="Capa_1" xmlns="http://www.w3.org/2000/svg" xmlns:xlink="http://www.w3.org/1999/xlink" x="0px" y="0px"
	 width="136.4px" height="20.9px" viewBox="0 0 136.4 20.9" enable-background="new 0 0 136.4 20.9" xml:space="preserve">
<path fill="#FFFFFF" d="M125,10.3c-3.1,0-5.9,1.1-7.9,3c-3-7.4-10.2-12.6-18.7-12.6c-7.1,0-13.4,3.7-17,9.3c-2.4-2-5.6-3.3-9.1-3.3
	c-5.4,0-10.1,3-12.5,7.5c-2.5-5.5-8.1-9.3-14.5-9.3c-5.6,0-10.6,2.9-13.5,7.3c-1.7-1.2-3.8-1.9-6-1.9c-4.6,0-8.5,2.9-10,7
	c-1.4-2.2-4-3.8-7.1-3.8c-4.5,0-8.1,3.3-8.1,7.4h135.8C136.4,15.1,131.3,10.3,125,10.3z"/>
</svg>
